<?xml version="1.0" encoding="UTF-8" standalone="no"?>
<svg
   xmlns:dc="http://purl.org/dc/elements/1.1/"
   xmlns:cc="http://creativecommons.org/ns#"
   xmlns:rdf="http://www.w3.org/1999/02/22-rdf-syntax-ns#"
   xmlns:svg="http://www.w3.org/2000/svg"
   xmlns="http://www.w3.org/2000/svg"
   xmlns:sodipodi="http://sodipodi.sourceforge.net/DTD/sodipodi-0.dtd"
   xmlns:inkscape="http://www.inkscape.org/namespaces/inkscape"
   version="1.1"
   id="svg2"
   xml:space="preserve"
   width="2000"
   height="800"
   viewBox="0 0 2000 800"
   sodipodi:docname="swung_logo_vector_cutout_colour.pdf"
   inkscape:version="1.0.2 (e86c870879, 2021-01-15, custom)"><metadata
     id="metadata8"><rdf:RDF><cc:Work
         rdf:about=""><dc:format>image/svg+xml</dc:format><dc:type
           rdf:resource="http://purl.org/dc/dcmitype/StillImage" /><dc:title></dc:title></cc:Work></rdf:RDF></metadata><defs
     id="defs6" /><sodipodi:namedview
     pagecolor="#ffffff"
     bordercolor="#666666"
     borderopacity="1"
     objecttolerance="10"
     gridtolerance="10"
     guidetolerance="10"
     inkscape:pageopacity="0"
     inkscape:pageshadow="2"
     inkscape:window-width="1920"
     inkscape:window-height="1027"
     id="namedview4"
     showgrid="false"
     inkscape:zoom="0.668"
     inkscape:cx="1003.7425"
     inkscape:cy="400"
     inkscape:window-x="0"
     inkscape:window-y="25"
     inkscape:window-maximized="1"
     inkscape:current-layer="g10" /><g
     id="g10"
     inkscape:groupmode="layer"
     inkscape:label="swung_logo_vector_cutout_colour"
     transform="matrix(1.3333333,0,0,1.3333333,0,2e-5)"><g
       id="g12"><path
         d="m 484.035,164.684 c -6.855,7.933 -12.605,15.648 -15.574,21.402 -7.367,14.281 -8.344,34.848 -5.449,59.187 2.894,24.344 9.343,51.84 13.754,79.407 4.414,27.566 7,55.386 0.343,81.297 -6.66,25.91 -24.05,49.375 -54.609,63.355 -15.438,7.063 -29.605,9.699 -42.465,5.773 -12.859,-3.929 -21.793,-14.371 -26.93,-25.832 -10.273,-22.925 -10.964,-53.031 -11.613,-85.722 -0.644,-32.692 -0.488,-67.621 -4.812,-95.938 -4.325,-28.312 -13.028,-47.883 -26.825,-55.609 -4.464,-2.504 -10.863,-2.539 -20.066,0.109 -7.367,2.125 -15.629,5.836 -23.914,9.418 l 83.848,316.621 c 101.625,-30.711 175.48,-124.972 175.48,-236.707 0,-50.597 -15.156,-97.605 -41.168,-136.761 z"
         style="fill:#1db6ed;fill-opacity:1;fill-rule:nonzero;stroke:none"
         id="path14" /><path
         d="m 229.5,159.512 c -8.508,-0.008 -27.531,0.894 -45.934,8.07 -24.695,9.629 -47.222,26.824 -46.55,74.398 0.195,13.891 7.156,25.7 19.765,38.489 12.61,12.785 30.387,25.406 48.067,39.023 17.683,13.613 35.449,28.246 47.547,47.278 12.093,19.035 17.437,43.355 9.441,70.101 -5.469,18.285 -16.531,32.328 -31.07,40.199 -14.536,7.875 -31.446,9.922 -49.536,9.047 -25.64,-1.242 -54.531,-8.34 -85.582,-17.512 45.176,49.25 110.082,80.106 182.29,80.106 18.238,0 36.011,-1.973 53.121,-5.707 z"
         style="fill:#1db6ed;fill-opacity:1;fill-rule:nonzero;stroke:none"
         id="path16" /><path
         d="M 204.535,65.227 C 103.746,96.445 30.672,190.305 30.672,301.445 c 0,46.805 12.969,90.543 35.5,127.832 45.492,14.27 86.855,26.516 116.457,27.946 14.926,0.722 26.437,-1.293 34.367,-5.586 7.926,-4.293 13.379,-10.52 17.129,-23.055 5.816,-19.453 2.523,-32.664 -6.145,-46.297 -8.664,-13.629 -23.781,-26.789 -40.781,-39.879 -16.996,-13.09 -35.687,-26.09 -51.011,-41.629 -15.325,-15.539 -27.762,-34.757 -28.094,-58.39 -0.821,-57.981 32.972,-89.278 64.965,-101.754 18.503,-7.215 36.722,-9.371 48.82,-9.918 z"
         style="fill:#98e916;fill-opacity:1;fill-rule:nonzero;stroke:none"
         id="path18" /><path
         d="m 277.938,54.18 c -18.829,0 -37.157,2.097 -54.774,6.074 l 35.211,132.953 c 6.988,-3.07 14.914,-6.441 23.41,-8.887 12.738,-3.668 28.121,-5.445 42.207,2.446 26.254,14.707 36.422,44.664 41.281,76.484 4.86,31.816 4.504,67.609 5.137,99.73 0.637,32.122 3.016,60.911 9.09,74.461 3.039,6.778 5.598,8.965 8.984,10 3.391,1.036 10.227,0.965 21.981,-4.414 23.824,-10.898 33.734,-25.195 38.629,-44.25 4.898,-19.054 3.293,-43.398 -0.887,-69.523 -4.184,-26.125 -10.738,-53.844 -13.918,-80.563 -3.176,-26.722 -3.297,-53.066 8.469,-75.867 5.633,-10.918 14.176,-21.554 23.488,-31.73 C 420.918,87.895 353.418,54.18 277.938,54.18 Z"
         style="fill:#3860dd;fill-opacity:1;fill-rule:nonzero;stroke:none"
         id="path20" /><path
         d="m 229.5,159.512 c -8.508,-0.008 -27.531,0.894 -45.934,8.07 -24.695,9.629 -47.222,26.824 -46.55,74.398 0.195,13.891 7.156,25.7 19.765,38.489 12.61,12.785 30.387,25.406 48.067,39.023 17.683,13.613 35.449,28.246 47.547,47.278 12.093,19.035 17.437,43.355 9.441,70.101 -5.469,18.285 -16.531,32.328 -31.07,40.199 -14.536,7.875 -31.446,9.922 -49.536,9.047 -25.64,-1.242 -54.531,-8.34 -85.582,-17.512 45.176,49.25 110.082,80.106 182.29,80.106 18.238,0 36.011,-1.973 53.121,-5.707 z"
         style="fill:#24c40e;fill-opacity:1;fill-rule:nonzero;stroke:none"
         id="path22" /><path
         d="m 673.457,325.359 c -0.566,-3.847 -2.039,-6.625 -4.414,-8.324 -2.266,-1.808 -5.777,-2.715 -10.535,-2.715 -4.528,0 -7.985,0.567 -10.363,1.7 -2.262,1.015 -3.395,2.828 -3.395,5.433 0,2.266 1.133,4.078 3.395,5.438 2.378,1.359 5.777,2.66 10.195,3.906 7.246,2.039 13.363,3.793 18.348,5.265 4.98,1.36 8.945,3.004 11.89,4.926 3.059,1.926 5.207,4.364 6.453,7.305 1.36,2.832 2.039,6.684 2.039,11.555 0,7.472 -3.113,13.703 -9.343,18.683 -6.227,4.871 -15.457,7.305 -27.688,7.305 -6.004,0 -11.441,-0.68 -16.309,-2.035 -4.871,-1.36 -9.062,-3.285 -12.57,-5.778 -3.398,-2.605 -6.058,-5.664 -7.984,-9.171 -1.813,-3.625 -2.778,-7.645 -2.891,-12.063 h 22.766 c 0,3.965 1.527,7.02 4.586,9.172 3.172,2.152 7.25,3.23 12.23,3.23 4.192,0 7.758,-0.625 10.703,-1.871 3.059,-1.359 4.586,-3.398 4.586,-6.113 0,-3.059 -1.133,-5.269 -3.398,-6.629 -2.149,-1.355 -5.492,-2.547 -10.02,-3.566 -8.156,-1.813 -14.722,-3.68 -19.707,-5.606 -4.984,-2.039 -8.89,-4.246 -11.722,-6.625 -2.719,-2.379 -4.586,-4.984 -5.606,-7.812 -0.906,-2.832 -1.359,-6.004 -1.359,-9.516 0,-3.172 0.625,-6.172 1.871,-9.004 1.355,-2.832 3.453,-5.32 6.285,-7.472 2.828,-2.153 6.512,-3.852 11.039,-5.098 4.531,-1.359 10.082,-2.039 16.649,-2.039 12.003,0 20.781,2.437 26.332,7.305 5.55,4.871 8.605,11.609 9.171,20.214 z"
         style="fill:#3860dd;fill-opacity:1;fill-rule:nonzero;stroke:none"
         id="path24" /><path
         d="m 743.582,367.32 c 13.477,0 20.219,-8.492 20.219,-25.48 0,-16.875 -6.742,-25.313 -20.219,-25.313 -13.477,0 -20.215,8.438 -20.215,25.313 0,16.988 6.738,25.48 20.215,25.48 z m 0,18.516 c -6.793,0 -12.852,-1.074 -18.176,-3.227 -5.324,-2.152 -9.851,-5.152 -13.59,-9.004 -3.625,-3.851 -6.398,-8.492 -8.324,-13.929 -1.926,-5.434 -2.887,-11.383 -2.887,-17.836 0,-6.57 0.961,-12.57 2.887,-18.008 2.039,-5.437 4.926,-10.078 8.664,-13.93 3.739,-3.851 8.211,-6.797 13.422,-8.832 5.32,-2.152 11.324,-3.23 18.004,-3.23 6.57,0 12.461,1.078 17.668,3.23 5.211,2.035 9.629,4.981 13.25,8.832 3.738,3.739 6.57,8.325 8.496,13.762 2.039,5.434 3.059,11.492 3.059,18.176 0,6.68 -1.02,12.738 -3.059,18.176 -1.926,5.324 -4.758,9.91 -8.496,13.761 -3.621,3.848 -8.098,6.852 -13.418,9.004 -5.211,2.035 -11.043,3.055 -17.5,3.055 z"
         style="fill:#3860dd;fill-opacity:1;fill-rule:nonzero;stroke:none"
         id="path26" /><path
         d="M 795.414,383.629 V 315.68 h -12.402 v -15.629 h 12.402 c 0,-20.387 11.832,-30.578 35.504,-30.578 v 17.836 c -2.832,0 -5.152,0.226 -6.965,0.679 -1.699,0.34 -3.058,1.02 -4.078,2.039 -1.02,1.02 -1.754,2.379 -2.207,4.075 -0.34,1.586 -0.512,3.57 -0.512,5.949 h 14.27 v 15.629 h -14.27 v 67.949 z"
         style="fill:#3860dd;fill-opacity:1;fill-rule:nonzero;stroke:none"
         id="path28" /><path
         d="m 883.25,328.59 h 20.555 v 23.781 c 0,4.418 -0.68,8.664 -2.039,12.742 -1.246,3.965 -3.286,7.532 -6.114,10.703 -2.718,3.055 -6.23,5.493 -10.535,7.305 -4.187,1.809 -9.23,2.715 -15.117,2.715 -6.117,0 -11.324,-0.906 -15.629,-2.715 -4.305,-1.812 -7.871,-4.25 -10.703,-7.305 -2.719,-3.058 -4.699,-6.625 -5.945,-10.703 -1.246,-4.078 -1.868,-8.383 -1.868,-12.91 v -74.746 h 21.743 v 22.594 h 46.207 v 15.629 h -46.207 v 34.312 c 0,5.324 0.964,9.457 2.886,12.403 2.039,2.832 5.325,4.246 9.856,4.246 4.418,0 7.644,-1.414 9.683,-4.246 2.153,-2.833 3.227,-6.852 3.227,-12.063 z"
         style="fill:#3860dd;fill-opacity:1;fill-rule:nonzero;stroke:none"
         id="path30" /><path
         d="m 980.805,383.629 -13.25,-48.586 -13.25,48.586 h -22.594 l -23.785,-83.578 h 23.273 l 13.59,53.679 11.555,-53.679 h 22.422 l 13.082,53.679 12.742,-53.679 h 22.762 l -23.954,83.578 z"
         style="fill:#3860dd;fill-opacity:1;fill-rule:nonzero;stroke:none"
         id="path32" /><path
         d="m 1076.766,342.688 c -1.133,1.132 -2.778,2.039 -4.926,2.718 -2.152,0.68 -5.27,1.418 -9.344,2.207 -6.344,1.246 -10.703,2.832 -13.082,4.758 -2.379,1.926 -3.566,4.699 -3.566,8.324 0,6.231 3.566,9.344 10.703,9.344 2.828,0 5.433,-0.453 7.812,-1.359 2.492,-1.02 4.586,-2.321 6.285,-3.907 1.813,-1.699 3.227,-3.625 4.247,-5.777 1.132,-2.266 1.699,-4.641 1.699,-7.133 z m 1.527,40.941 c -0.68,-2.152 -1.133,-4.645 -1.359,-7.473 -2.606,2.942 -6.059,5.321 -10.364,7.133 -4.3,1.699 -9.285,2.547 -14.949,2.547 -9.625,0 -16.703,-2.094 -21.234,-6.285 -4.414,-4.301 -6.625,-9.852 -6.625,-16.649 0,-6 0.965,-10.757 2.89,-14.269 1.922,-3.621 4.586,-6.453 7.985,-8.492 3.394,-2.039 7.418,-3.512 12.058,-4.418 4.758,-1.02 9.91,-1.926 15.461,-2.719 5.547,-0.793 9.285,-1.809 11.211,-3.055 1.926,-1.359 2.887,-3.511 2.887,-6.457 0,-2.719 -1.301,-4.812 -3.906,-6.285 -2.493,-1.586 -5.891,-2.379 -10.192,-2.379 -5.097,0 -8.777,1.133 -11.043,3.399 -2.152,2.265 -3.511,5.265 -4.078,9.003 h -20.555 c 0.114,-4.304 0.793,-8.269 2.04,-11.89 1.359,-3.625 3.453,-6.738 6.285,-9.344 2.945,-2.605 6.738,-4.59 11.383,-5.945 4.644,-1.473 10.304,-2.211 16.988,-2.211 6.566,0 12.117,0.738 16.648,2.211 4.641,1.469 8.324,3.621 11.039,6.453 2.832,2.719 4.871,6.172 6.117,10.363 1.247,4.078 1.868,8.719 1.868,13.93 v 52.832 z"
         style="fill:#3860dd;fill-opacity:1;fill-rule:nonzero;stroke:none"
         id="path34" /><path
         d="m 1107.594,383.629 v -83.578 h 20.722 v 10.019 c 1.813,-2.828 3.684,-5.039 5.606,-6.625 2.039,-1.586 4.078,-2.773 6.117,-3.566 2.152,-0.906 4.305,-1.473 6.457,-1.699 2.149,-0.227 4.359,-0.34 6.625,-0.34 h 2.887 v 22.594 c -2.039,-0.34 -4.078,-0.508 -6.117,-0.508 -13.477,0 -20.215,6.738 -20.215,20.215 v 43.488 z"
         style="fill:#3860dd;fill-opacity:1;fill-rule:nonzero;stroke:none"
         id="path36" /><path
         d="m 1211.738,333.684 c -0.113,-3.055 -0.679,-5.719 -1.699,-7.985 -0.906,-2.375 -2.152,-4.301 -3.738,-5.773 -1.586,-1.586 -3.395,-2.719 -5.434,-3.399 -2.039,-0.793 -4.137,-1.187 -6.285,-1.187 -4.418,0 -8.27,1.64 -11.555,4.926 -3.168,3.172 -4.98,7.644 -5.433,13.418 z m -34.824,13.929 c 0.34,6.344 2.152,11.383 5.434,15.121 3.398,3.739 7.816,5.606 13.254,5.606 3.621,0 6.793,-0.793 9.511,-2.379 2.832,-1.699 4.645,-4.02 5.438,-6.965 h 22.761 c -2.605,8.609 -7.132,15.234 -13.589,19.875 -6.457,4.645 -14.157,6.965 -23.102,6.965 -27.863,0 -41.793,-15.176 -41.793,-45.527 0,-6.454 0.906,-12.286 2.719,-17.497 1.812,-5.21 4.418,-9.683 7.816,-13.421 3.508,-3.735 7.758,-6.567 12.739,-8.493 4.984,-2.039 10.703,-3.058 17.16,-3.058 12.91,0 22.648,4.133 29.218,12.402 6.68,8.266 10.024,20.727 10.024,37.371 z"
         style="fill:#3860dd;fill-opacity:1;fill-rule:nonzero;stroke:none"
         id="path38" /><path
         d="m 677.535,528.273 v -11.718 c -5.664,9.285 -14.324,13.929 -25.992,13.929 -4.188,0 -8.039,-0.738 -11.551,-2.211 -3.398,-1.472 -6.344,-3.566 -8.832,-6.285 -2.492,-2.718 -4.476,-5.945 -5.945,-9.683 -1.36,-3.735 -2.039,-7.926 -2.039,-12.571 v -55.039 h 22.082 v 51.641 c 0,10.422 4.699,15.629 14.101,15.629 5.661,0 9.911,-1.754 12.739,-5.266 2.945,-3.621 4.418,-8.211 4.418,-13.758 v -48.246 h 21.914 v 83.578 z"
         style="fill:#1db6ed;fill-opacity:1;fill-rule:nonzero;stroke:none"
         id="path40" /><path
         d="m 760.629,528.273 v -50.621 c 0,-6.457 -1.074,-10.816 -3.227,-13.082 -2.152,-2.265 -5.832,-3.398 -11.043,-3.398 -11.437,0 -17.156,6.398 -17.156,19.199 v 47.902 h -22.086 v -83.578 h 21.067 v 12.231 c 2.605,-4.758 6.058,-8.324 10.363,-10.703 4.301,-2.493 9.851,-3.735 16.648,-3.735 3.961,0 7.645,0.621 11.039,1.867 3.399,1.133 6.286,2.887 8.664,5.266 2.493,2.379 4.418,5.324 5.778,8.832 1.472,3.399 2.207,7.363 2.207,11.895 v 57.925 z"
         style="fill:#1db6ed;fill-opacity:1;fill-rule:nonzero;stroke:none"
         id="path42" /><path
         d="m 831.309,512.477 c 5.32,0 9.738,-2.207 13.25,-6.625 3.621,-4.418 5.433,-10.192 5.433,-17.329 0,-18.121 -6.172,-27.179 -18.515,-27.179 -12.684,0 -19.028,8.605 -19.028,25.82 0,7.477 1.758,13.59 5.266,18.348 3.512,4.644 8.043,6.965 13.594,6.965 z m 18.343,15.796 -0.168,-10.191 c -5.097,8.266 -12.855,12.402 -23.273,12.402 -5.324,0 -10.191,-1.019 -14.609,-3.058 -4.418,-2.039 -8.211,-4.985 -11.383,-8.832 -3.172,-3.852 -5.664,-8.551 -7.473,-14.102 -1.812,-5.551 -2.719,-11.836 -2.719,-18.855 0,-6.344 0.735,-12.121 2.207,-17.328 1.586,-5.325 3.852,-9.911 6.797,-13.762 2.946,-3.852 6.512,-6.793 10.699,-8.832 4.305,-2.153 9.176,-3.227 14.614,-3.227 10.304,0 18.57,4.36 24.801,13.078 v -41.449 h 21.742 v 114.156 z"
         style="fill:#1db6ed;fill-opacity:1;fill-rule:nonzero;stroke:none"
         id="path44" /><path
         d="m 934.691,478.332 c -0.113,-3.059 -0.679,-5.719 -1.699,-7.984 -0.906,-2.379 -2.152,-4.305 -3.738,-5.778 -1.586,-1.586 -3.399,-2.718 -5.434,-3.398 -2.039,-0.793 -4.136,-1.188 -6.285,-1.188 -4.418,0 -8.269,1.641 -11.555,4.926 -3.168,3.172 -4.98,7.645 -5.433,13.422 z m -34.824,13.93 c 0.34,6.34 2.153,11.379 5.434,15.117 3.398,3.738 7.816,5.605 13.25,5.605 3.625,0 6.797,-0.793 9.515,-2.375 2.832,-1.699 4.645,-4.023 5.434,-6.968 h 22.766 c -2.606,8.609 -7.137,15.234 -13.59,19.879 -6.457,4.64 -14.156,6.964 -23.106,6.964 -27.859,0 -41.789,-15.175 -41.789,-45.527 0,-6.457 0.907,-12.289 2.719,-17.5 1.812,-5.207 4.418,-9.68 7.812,-13.418 3.512,-3.738 7.758,-6.57 12.743,-8.496 4.984,-2.039 10.703,-3.055 17.156,-3.055 12.914,0 22.652,4.133 29.223,12.399 6.679,8.269 10.019,20.726 10.019,37.375 z"
         style="fill:#1db6ed;fill-opacity:1;fill-rule:nonzero;stroke:none"
         id="path46" /><path
         d="m 964.258,528.273 v -83.578 h 20.726 v 10.024 c 1.813,-2.832 3.68,-5.039 5.606,-6.625 2.039,-1.586 4.074,-2.778 6.113,-3.571 2.152,-0.906 4.305,-1.472 6.457,-1.699 2.152,-0.222 4.36,-0.336 6.625,-0.336 h 2.887 v 22.594 c -2.039,-0.34 -4.074,-0.512 -6.113,-0.512 -13.477,0 -20.215,6.739 -20.215,20.215 v 43.488 z"
         style="fill:#1db6ed;fill-opacity:1;fill-rule:nonzero;stroke:none"
         id="path48" /><path
         d="m 1055.445,511.625 c 5.438,0 9.91,-2.035 13.422,-6.113 3.621,-4.192 5.434,-9.852 5.434,-16.989 0,-17.894 -6.285,-26.839 -18.856,-26.839 -12.57,0 -18.855,8.492 -18.855,25.48 0,7.477 1.754,13.422 5.265,17.836 3.625,4.418 8.153,6.625 13.59,6.625 z m 18.176,5.437 c -1.586,3.739 -4.473,6.684 -8.664,8.836 -4.074,2.036 -8.832,3.055 -14.269,3.055 -6.907,0 -12.739,-1.187 -17.497,-3.566 -4.644,-2.492 -8.437,-5.719 -11.382,-9.684 -2.832,-3.965 -4.926,-8.551 -6.286,-13.758 -1.246,-5.211 -1.867,-10.535 -1.867,-15.968 0,-6.457 0.961,-12.348 2.887,-17.668 1.926,-5.438 4.531,-10.024 7.816,-13.762 3.282,-3.852 7.133,-6.793 11.551,-8.832 4.414,-2.153 9.172,-3.227 14.27,-3.227 10.418,0 18.234,4.188 23.441,12.571 v -10.364 h 22.086 v 84.43 c 0,6.34 -1.078,11.891 -3.227,16.648 -2.152,4.868 -5.097,8.891 -8.835,12.059 -3.739,3.285 -8.153,5.777 -13.25,7.477 -5.098,1.699 -10.532,2.546 -16.309,2.546 -5.777,0 -11.156,-0.847 -16.137,-2.546 -4.984,-1.586 -9.289,-3.907 -12.914,-6.965 -3.508,-2.946 -6.285,-6.571 -8.32,-10.871 -2.039,-4.305 -3.059,-9.176 -3.059,-14.61 h 20.555 c 0,5.094 1.641,9 4.926,11.719 3.398,2.832 7.871,4.25 13.422,4.25 5.886,0 10.871,-1.644 14.949,-4.93 4.074,-3.168 6.113,-7.531 6.113,-13.078 z"
         style="fill:#1db6ed;fill-opacity:1;fill-rule:nonzero;stroke:none"
         id="path50" /><path
         d="m 1104.605,528.273 v -83.578 h 20.727 v 10.024 c 1.813,-2.832 3.68,-5.039 5.606,-6.625 2.039,-1.586 4.078,-2.778 6.117,-3.571 2.148,-0.906 4.3,-1.472 6.453,-1.699 2.152,-0.222 4.359,-0.336 6.625,-0.336 h 2.89 v 22.594 c -2.039,-0.34 -4.078,-0.512 -6.117,-0.512 -13.476,0 -20.215,6.739 -20.215,20.215 v 43.488 z"
         style="fill:#1db6ed;fill-opacity:1;fill-rule:nonzero;stroke:none"
         id="path52" /><path
         d="m 1194.82,511.965 c 13.481,0 20.219,-8.492 20.219,-25.481 0,-16.875 -6.738,-25.312 -20.219,-25.312 -13.476,0 -20.215,8.437 -20.215,25.312 0,16.989 6.739,25.481 20.215,25.481 z m 0,18.519 c -6.793,0 -12.851,-1.078 -18.175,-3.23 -5.321,-2.149 -9.852,-5.152 -13.59,-9 -3.625,-3.852 -6.399,-8.496 -8.325,-13.934 -1.925,-5.433 -2.886,-11.379 -2.886,-17.836 0,-6.566 0.961,-12.57 2.886,-18.007 2.04,-5.434 4.926,-10.079 8.665,-13.93 3.738,-3.852 8.21,-6.793 13.421,-8.832 5.321,-2.153 11.325,-3.227 18.004,-3.227 6.571,0 12.461,1.074 17.668,3.227 5.211,2.039 9.629,4.98 13.25,8.832 3.739,3.738 6.571,8.324 8.496,13.762 2.039,5.433 3.059,11.496 3.059,18.175 0,6.684 -1.02,12.743 -3.059,18.176 -1.925,5.324 -4.757,9.91 -8.496,13.762 -3.621,3.851 -8.097,6.851 -13.418,9.004 -5.211,2.039 -11.043,3.058 -17.5,3.058 z"
         style="fill:#1db6ed;fill-opacity:1;fill-rule:nonzero;stroke:none"
         id="path54" /><path
         d="m 1298.652,528.273 v -11.718 c -5.664,9.285 -14.328,13.929 -25.992,13.929 -4.191,0 -8.039,-0.738 -11.551,-2.211 -3.398,-1.472 -6.343,-3.566 -8.832,-6.285 -2.492,-2.718 -4.476,-5.945 -5.949,-9.683 -1.355,-3.735 -2.035,-7.926 -2.035,-12.571 v -55.039 h 22.082 v 51.641 c 0,10.422 4.699,15.629 14.102,15.629 5.66,0 9.91,-1.754 12.738,-5.266 2.945,-3.621 4.418,-8.211 4.418,-13.758 v -48.246 h 21.914 v 83.578 z"
         style="fill:#1db6ed;fill-opacity:1;fill-rule:nonzero;stroke:none"
         id="path56" /><path
         d="m 1381.746,528.273 v -50.621 c 0,-6.457 -1.074,-10.816 -3.226,-13.082 -2.153,-2.265 -5.832,-3.398 -11.043,-3.398 -11.438,0 -17.157,6.398 -17.157,19.199 v 47.902 h -22.086 v -83.578 h 21.067 v 12.231 c 2.605,-4.758 6.058,-8.324 10.363,-10.703 4.301,-2.493 9.852,-3.735 16.645,-3.735 3.964,0 7.644,0.621 11.043,1.867 3.398,1.133 6.285,2.887 8.664,5.266 2.492,2.379 4.418,5.324 5.777,8.832 1.473,3.399 2.207,7.363 2.207,11.895 v 57.925 z"
         style="fill:#1db6ed;fill-opacity:1;fill-rule:nonzero;stroke:none"
         id="path58" /><path
         d="m 1452.422,512.477 c 5.324,0 9.742,-2.207 13.254,-6.625 3.621,-4.418 5.433,-10.192 5.433,-17.329 0,-18.121 -6.171,-27.179 -18.515,-27.179 -12.684,0 -19.028,8.605 -19.028,25.82 0,7.477 1.758,13.59 5.266,18.348 3.512,4.644 8.043,6.965 13.59,6.965 z m 18.348,15.796 -0.168,-10.191 c -5.098,8.266 -12.856,12.402 -23.274,12.402 -5.324,0 -10.195,-1.019 -14.609,-3.058 -4.418,-2.039 -8.211,-4.985 -11.383,-8.832 -3.172,-3.852 -5.664,-8.551 -7.473,-14.102 -1.812,-5.551 -2.718,-11.836 -2.718,-18.855 0,-6.344 0.734,-12.121 2.207,-17.328 1.586,-5.325 3.851,-9.911 6.796,-13.762 2.942,-3.852 6.512,-6.793 10.7,-8.832 4.304,-2.153 9.175,-3.227 14.609,-3.227 10.309,0 18.574,4.36 24.805,13.078 v -41.449 h 21.742 v 114.156 z"
         style="fill:#1db6ed;fill-opacity:1;fill-rule:nonzero;stroke:none"
         id="path60" /></g></g></svg>
